<svg width="16" height="16" viewBox="0 0 16 16" fill="none" xmlns="http://www.w3.org/2000/svg">
<path d="M6.2656 2.04537C6.07173 2.22153 5.85723 2.42844 5.6121 2.67033C5.45687 2.79219 5.2655 2.86095 5.06651 2.86478L4.24522 2.88058L4.4845 2.64129C5.93547 1.19033 6.66095 0.464844 7.56246 0.464844C8.46398 0.464844 9.18946 1.19033 10.6404 2.64129L10.8793 2.88014L10.0861 2.8652C9.86255 2.86099 9.6483 2.77477 9.48412 2.62293L9.00855 2.18312C8.96338 2.14083 8.91934 2.10008 8.87632 2.06084L8.85065 2.0371L8.85021 2.0371C8.68777 1.88982 8.53979 1.76423 8.40033 1.65783C7.9975 1.35048 7.76302 1.28101 7.56246 1.28101C7.36191 1.28101 7.12743 1.35048 6.7246 1.65783C6.58344 1.76553 6.43355 1.89288 6.26877 2.04249L6.26858 2.04249L6.2656 2.04537Z" fill="#171717"/>
<path d="M13.5293 6.71379C13.4901 6.67085 13.4494 6.62689 13.4072 6.58182L12.9672 6.10599C12.8155 5.94191 12.7292 5.72783 12.7249 5.50439L12.7096 4.71047L12.9489 4.94976C14.3999 6.40072 15.1253 7.12621 15.1253 8.02772C15.1253 8.92923 14.3999 9.65472 12.9489 11.1057L12.7096 11.345L12.7249 10.551C12.7292 10.3276 12.8155 10.1135 12.9672 9.94944L13.4072 9.47368C13.4494 9.42858 13.4901 9.3846 13.5293 9.34163L13.5531 9.3159V9.31547C13.7004 9.15302 13.826 9.00505 13.9324 8.86558C14.2397 8.46275 14.3092 8.22827 14.3092 8.02772C14.3092 7.82717 14.2397 7.59269 13.9324 7.18986C13.826 7.05039 13.7004 6.90241 13.5531 6.73997V6.73954L13.5293 6.71379Z" fill="#171717"/>
<path d="M8.86724 14.0029C8.91578 13.9587 8.96561 13.9126 9.01688 13.8645L9.4842 13.4324C9.64833 13.2806 9.8625 13.1944 10.086 13.1902L10.8795 13.1751L10.6404 13.4141C9.18946 14.8651 8.46398 15.5906 7.56246 15.5906C6.66095 15.5906 5.93547 14.8651 4.4845 13.4141L4.24522 13.1749L5.04084 13.1901C5.26332 13.1944 5.47656 13.2799 5.64041 13.4305L5.96127 13.7253C6.2542 14.0059 6.5004 14.2266 6.7246 14.3976C7.12743 14.705 7.36191 14.7744 7.56246 14.7744C7.76302 14.7744 7.9975 14.705 8.40033 14.3976C8.54149 14.2899 8.69138 14.1626 8.85616 14.0129H8.85635L8.86724 14.0029Z" fill="#171717"/>
<path d="M1.58109 9.32566C1.62968 9.37912 1.68062 9.43416 1.73397 9.49098L2.15789 9.94938C2.30966 10.1135 2.39587 10.3276 2.40014 10.5511L2.41532 11.345L2.17604 11.1057C0.725071 9.65472 -0.000411987 8.92923 -0.000411987 8.02772C-0.000411987 7.12621 0.72507 6.40072 2.17603 4.94976L2.4151 4.71069L2.40008 5.50413C2.39585 5.72773 2.3096 5.94198 2.15774 6.10615L1.72069 6.57862C1.67726 6.62498 1.63546 6.67015 1.59524 6.71425L1.57184 6.73954L1.57184 6.73997C1.42456 6.90241 1.29898 7.05039 1.19257 7.18986C0.885221 7.59269 0.815755 7.82717 0.815755 8.02772C0.815755 8.22827 0.885221 8.46275 1.19257 8.86558C1.3003 9.00678 1.42769 9.1567 1.57734 9.32153L1.57734 9.3216L1.58109 9.32566Z" fill="#171717"/>
<path d="M1.57734 6.73359L2.15774 6.10615C2.29233 5.96066 2.37538 5.77583 2.39548 5.58002C2.39787 5.25741 2.40315 4.97602 2.41479 4.72731L2.41543 4.69326L2.41648 4.69222C2.4272 4.47735 2.4429 4.28718 2.46591 4.116C2.53343 3.61382 2.65011 3.3989 2.79193 3.25709C2.93374 3.11527 3.14866 2.99859 3.65083 2.93108C3.82519 2.90763 4.01925 2.89178 4.23904 2.88105L4.23941 2.88069L4.2514 2.88046C4.50899 2.86817 4.80178 2.8628 5.13935 2.86046C5.34296 2.84019 5.53466 2.75189 5.6828 2.6087L6.26857 2.0425H5.93023C3.87826 2.0425 2.85227 2.0425 2.21481 2.67997C1.57734 3.31744 1.57734 4.34342 1.57734 6.3954V6.73359Z" fill="#171717"/>
<path d="M1.57734 9.3216V9.66007C1.57734 11.712 1.57734 12.738 2.21481 13.3755C2.85227 14.013 3.87826 14.013 5.93024 14.013H9.1949C11.2469 14.013 12.2729 14.013 12.9103 13.3755C13.5478 12.738 13.5478 11.712 13.5478 9.66006V9.32162L12.9672 9.94944C12.833 10.0946 12.75 10.2789 12.7297 10.4741C12.7272 10.8037 12.7218 11.0903 12.7096 11.343L12.7095 11.3508L12.7093 11.351C12.6985 11.5709 12.6827 11.765 12.6592 11.9395C12.5917 12.4416 12.475 12.6566 12.3332 12.7984C12.1914 12.9402 11.9765 13.0569 11.4743 13.1244C11.3031 13.1474 11.1128 13.1631 10.8978 13.1738L10.8969 13.1748L10.8671 13.1753C10.6173 13.1871 10.3344 13.1924 10.0097 13.1948C9.81416 13.215 9.62956 13.298 9.4842 13.4324L8.85635 14.0129L6.27428 14.0129L5.64041 13.4305C5.49547 13.2973 5.31187 13.215 5.11742 13.1948C4.78874 13.1924 4.5028 13.187 4.2506 13.175L4.23941 13.1748L4.23907 13.1744C4.01927 13.1637 3.8252 13.1478 3.65083 13.1244C3.14866 13.0569 2.93374 12.9402 2.79193 12.7984C2.65011 12.6566 2.53343 12.4416 2.46591 11.9395C2.44247 11.7651 2.42661 11.571 2.41589 11.3512L2.41543 11.3508L2.41514 11.3357C2.40325 11.085 2.39788 10.8009 2.39547 10.4747C2.37525 10.2792 2.29227 10.0947 2.15789 9.94938L1.57734 9.3216Z" fill="#171717"/>
<path d="M12.7297 5.58129C12.75 5.77656 12.833 5.96084 12.9672 6.10599L13.5478 6.73382V6.3954C13.5478 4.34342 13.5478 3.31744 12.9103 2.67997C12.2729 2.0425 11.2469 2.0425 9.1949 2.0425H8.85649L9.48412 2.62293C9.62972 2.75758 9.8147 2.84063 10.0107 2.86064C10.3313 2.86302 10.6112 2.86826 10.8588 2.87975L10.9083 2.88069L10.9099 2.88224C11.1199 2.89293 11.3063 2.90848 11.4743 2.93108C11.9765 2.99859 12.1914 3.11527 12.3332 3.25709C12.475 3.3989 12.5917 3.61382 12.6592 4.116C12.6827 4.29041 12.6985 4.48454 12.7093 4.70442L12.7095 4.70466L12.7096 4.71246C12.7218 4.96513 12.7272 5.25171 12.7297 5.58129Z" fill="#171717"/>
<path d="M6.94278 4.41287L6.39229 4.8801C6.29406 4.96347 6.17096 5.01195 6.04226 5.01794L5.12092 5.06087L5.60134 4.58045C6.52867 3.65312 6.99234 3.18945 7.56851 3.18945C8.14468 3.18945 8.60834 3.65312 9.53567 4.58045L10.0132 5.05794L9.07892 5.01746C8.94794 5.01178 8.82269 4.96211 8.72342 4.87648L8.30784 4.51797C8.16195 4.38068 8.03825 4.27216 7.92536 4.18603C7.69411 4.00959 7.60641 4.00557 7.56851 4.00557C7.53061 4.00557 7.44291 4.00959 7.21165 4.18603C7.20796 4.18885 7.20426 4.19168 7.20055 4.19455L7.20002 4.19454L7.19457 4.19917C7.11709 4.25924 7.03435 4.32981 6.94278 4.41287Z" fill="#171717"/>
<path d="M11.3748 7.62669C11.2176 7.42787 10.9918 7.19314 10.6651 6.8645C10.6116 6.77913 10.5809 6.68075 10.5767 6.57878L10.5363 5.58111L11.011 6.05582C11.9384 6.98316 12.402 7.44682 12.402 8.02299C12.402 8.59916 11.9384 9.06283 11.011 9.99016L10.5338 10.4674L10.5798 9.5139C10.5862 9.3814 10.6375 9.25505 10.7255 9.15571L11.0745 8.76124C11.1847 8.64412 11.2764 8.5413 11.3527 8.44689L11.3957 8.39831V8.39254C11.399 8.38829 11.4023 8.38406 11.4055 8.37985C11.5819 8.14859 11.5859 8.06089 11.5859 8.02299C11.5859 7.98509 11.5819 7.89739 11.4055 7.66613C11.4023 7.66192 11.399 7.65769 11.3957 7.65345V7.64864L11.3748 7.62669Z" fill="#171717"/>
<path d="M3.74332 7.6525L4.37976 6.96039C4.46989 6.86237 4.52374 6.73644 4.53236 6.60356L4.56757 6.06027C4.57291 5.88825 4.58175 5.74294 4.59635 5.61628L4.59885 5.57773L4.60137 5.57523C4.60193 5.57086 4.60251 5.56652 4.60309 5.56219C4.64185 5.2739 4.70102 5.20905 4.72782 5.18225C4.75461 5.15545 4.81947 5.09628 5.10776 5.05752C5.20031 5.04508 5.30302 5.03618 5.41945 5.02981L6.20114 4.95269C6.32654 4.94032 6.44456 4.88764 6.5375 4.80256L7.19813 4.19776H6.52532C5.21387 4.19776 4.55815 4.19776 4.15074 4.60517C3.80365 4.95226 3.75225 5.47957 3.74465 6.43901C3.74332 6.60577 3.74332 6.78557 3.74332 6.97975L3.74332 7.65081V7.6525Z" fill="#171717"/>
<path d="M3.74332 8.39349V8.39591L3.74332 9.06625C3.74332 9.26042 3.74332 9.44022 3.74464 9.60697C3.75225 10.5664 3.80364 11.0937 4.15074 11.4408C4.49783 11.7879 5.02514 11.8393 5.9846 11.8469C6.15134 11.8482 6.33114 11.8482 6.52532 11.8482H7.19548H7.9406H8.61181C8.80594 11.8482 8.9857 11.8482 9.15242 11.8469C10.1119 11.8393 10.6393 11.7879 10.9864 11.4408C11.3938 11.0334 11.3938 10.3777 11.3938 9.06625V8.39145L10.7156 9.12693C10.6477 9.20047 10.6005 9.28967 10.5774 9.38561C10.5761 9.86233 10.5696 10.1938 10.5385 10.449L10.5382 10.4626L10.5366 10.4641C10.5358 10.4707 10.5349 10.4773 10.534 10.4838C10.4953 10.7721 10.4361 10.8369 10.4093 10.8637C10.3825 10.8905 10.3177 10.9497 10.0294 10.9885C10.0229 10.9893 10.0163 10.9902 10.0097 10.991L10.0081 10.9927L9.98526 10.994C9.84011 11.0113 9.67038 11.0207 9.46365 11.0259L8.99856 11.0543C8.86615 11.0624 8.74047 11.1154 8.64226 11.2045L7.9333 11.8482H7.19231L6.4836 11.1857C6.39032 11.0985 6.27125 11.0445 6.14485 11.0316C6.09011 11.0314 6.03734 11.0311 5.98644 11.0307C5.60444 11.0276 5.32748 11.018 5.10776 10.9885C4.81947 10.9497 4.75461 10.8905 4.72782 10.8637C4.70102 10.8369 4.64185 10.7721 4.60309 10.4838C4.60251 10.4795 4.60193 10.4751 4.60137 10.4708L4.59885 10.4683L4.59861 10.4628L4.59767 10.441C4.57182 10.2239 4.56342 9.95164 4.56071 9.5826L4.55663 9.48804C4.55554 9.46268 4.5528 9.43755 4.54848 9.41279C4.52953 9.30435 4.48014 9.20293 4.40534 9.12075L3.74332 8.39349Z" fill="#171717"/>
<path d="M10.5706 6.09436L10.6088 6.61274C10.6184 6.74349 10.6719 6.86717 10.7605 6.9638L11.3938 7.65451V6.97975C11.3938 5.66831 11.3938 5.01258 10.9864 4.60517C10.579 4.19776 9.92325 4.19776 8.61181 4.19776H7.93322L8.61288 4.8169C8.70813 4.90367 8.82944 4.95643 8.95786 4.96694L9.74606 5.03143C9.82137 5.03591 9.89084 5.04152 9.95549 5.04856L10.0138 5.05333L10.0162 5.05578C10.0206 5.05636 10.025 5.05693 10.0294 5.05752C10.3177 5.09628 10.3825 5.15545 10.4093 5.18225C10.4361 5.20905 10.4953 5.2739 10.534 5.56219C10.5538 5.70919 10.5646 5.88181 10.5706 6.09436Z" fill="#171717"/>
<path d="M4.60116 10.4653L4.59861 10.4628L4.59885 10.4683L4.60137 10.4708L4.60116 10.4653Z" fill="#171717"/>
<path d="M5.12677 10.991L5.98644 11.0307C5.61538 11.0277 5.34343 11.0186 5.12677 10.991Z" fill="#171717"/>
<path d="M4.56466 9.52689C4.56304 9.48818 4.55757 9.44997 4.54848 9.41279C4.5528 9.43755 4.55554 9.46268 4.55663 9.48804L4.56071 9.5826C4.56342 9.95164 4.57182 10.2239 4.59767 10.441L4.59861 10.4628L4.60116 10.4653L4.56466 9.52689Z" fill="#171717"/>
<path d="M2.73497 8.02299C2.73497 8.51387 3.07153 8.92309 3.74464 9.60697C3.74332 9.44022 3.74332 9.26042 3.74332 9.06625L3.74332 8.39591L3.74189 8.39428L3.7419 8.39332C3.73841 8.38881 3.73496 8.38432 3.73155 8.37985C3.5551 8.14859 3.55109 8.06089 3.55109 8.02299C3.55109 7.98509 3.5551 7.89739 3.73155 7.66613C3.73543 7.66105 3.73935 7.65594 3.74332 7.65081L3.74332 6.97975C3.74332 6.78557 3.74332 6.60577 3.74465 6.43901C3.07153 7.12289 2.73497 7.53211 2.73497 8.02299Z" fill="#171717"/>
<path d="M7.21165 11.86C7.20838 11.8575 7.2051 11.8549 7.20181 11.8524H7.20002L7.19548 11.8482H6.52532C6.33114 11.8482 6.15134 11.8482 5.9846 11.8469C6.66843 12.52 7.07764 12.8565 7.56851 12.8565C8.05937 12.8565 8.46858 12.52 9.15242 11.8469C8.9857 11.8482 8.80594 11.8482 8.61181 11.8482H7.9406C7.9355 11.8522 7.93042 11.8561 7.92536 11.86C7.69411 12.0364 7.60641 12.0404 7.56851 12.0404C7.53061 12.0404 7.44291 12.0364 7.21165 11.86Z" fill="#171717"/>
</svg>
