<svg width="16" height="16" viewBox="0 0 16 16" fill="none" xmlns="http://www.w3.org/2000/svg">
<g id="variant=calendar-clock, size=16px">
<path id="Vector" d="M14 5.00008V4.00008C14 3.64646 13.8595 3.30732 13.6095 3.05727C13.3594 2.80722 13.0203 2.66675 12.6667 2.66675H3.33333C2.97971 2.66675 2.64057 2.80722 2.39052 3.05727C2.14048 3.30732 2 3.64646 2 4.00008V13.3334C2 13.687 2.14048 14.0262 2.39052 14.2762C2.64057 14.5263 2.97971 14.6667 3.33333 14.6667H5.66667" stroke="#262626" stroke-width="1.33" stroke-linecap="round" stroke-linejoin="round"/>
<path id="Vector_2" d="M10.6667 1.33325V3.99992" stroke="#262626" stroke-width="1.33" stroke-linecap="round" stroke-linejoin="round"/>
<path id="Vector_3" d="M5.33331 1.33325V3.99992" stroke="#262626" stroke-width="1.33" stroke-linecap="round" stroke-linejoin="round"/>
<path id="Vector_4" d="M2 6.66675H5.33333" stroke="#262626" stroke-width="1.33" stroke-linecap="round" stroke-linejoin="round"/>
<path id="Vector_5" d="M11.6667 11.6666L10.6667 10.8333V9.33325" stroke="#262626" stroke-width="1.33" stroke-linecap="round" stroke-linejoin="round"/>
<path id="Vector_6" d="M14.6667 10.6667C14.6667 11.7276 14.2453 12.745 13.4951 13.4952C12.745 14.2453 11.7276 14.6667 10.6667 14.6667C9.60582 14.6667 8.58841 14.2453 7.83826 13.4952C7.08811 12.745 6.66669 11.7276 6.66669 10.6667C6.66669 9.60588 7.08811 8.58847 7.83826 7.83832C8.58841 7.08818 9.60582 6.66675 10.6667 6.66675C11.7276 6.66675 12.745 7.08818 13.4951 7.83832C14.2453 8.58847 14.6667 9.60588 14.6667 10.6667Z" stroke="#262626" stroke-width="1.33" stroke-linecap="round" stroke-linejoin="round"/>
</g>
</svg>
