<svg width="16" height="16" viewBox="0 0 16 16" fill="none" xmlns="http://www.w3.org/2000/svg">
<g opacity="0.5">
<path d="M11.6666 12.6673H5.99994C5.13452 12.6671 4.28621 12.4262 3.54979 11.9716C2.81338 11.517 2.21789 10.8666 1.82986 10.0931C1.44183 9.3195 1.27654 8.45329 1.35247 7.5912C1.4284 6.72911 1.74256 5.90512 2.25984 5.21131C2.77712 4.51749 3.47714 3.98118 4.28168 3.66231C5.08622 3.34344 5.96357 3.25457 6.81571 3.40563C7.66785 3.55669 8.4612 3.94173 9.1071 4.51772C9.753 5.09372 10.226 5.83797 10.4733 6.66732H11.6666C12.4623 6.66732 13.2253 6.98339 13.7879 7.546C14.3505 8.10861 14.6666 8.87167 14.6666 9.66732C14.6666 10.463 14.3505 11.226 13.7879 11.7886C13.2253 12.3512 12.4623 12.6673 11.6666 12.6673Z" stroke="#737373" stroke-width="1.33" stroke-linecap="round" stroke-linejoin="round"/>
</g>
</svg>
